<?xml version="1.0" standalone="no"?><!DOCTYPE svg PUBLIC "-//W3C//DTD SVG 1.1//EN" "http://www.w3.org/Graphics/SVG/1.1/DTD/svg11.dtd"><svg t="1634648662379" class="icon" viewBox="0 0 1024 1024" version="1.1" xmlns="http://www.w3.org/2000/svg" p-id="899" xmlns:xlink="http://www.w3.org/1999/xlink" width="200" height="200"><defs><style type="text/css"></style></defs><path d="M779.60007 1014.4L265.20007 823.6l-238 154.2A17.6 17.6 0 0 1 0.00007 963V185.6a17.6 17.6 0 0 1 8-14.8L253.40007 11.4A17.6 17.6 0 0 1 269.00007 9.6l515 191L997.60007 75a17.6 17.6 0 0 1 26.4 15.2v778a17.6 17.6 0 0 1-8.6 15.2L794.60007 1013a17.6 17.6 0 0 1-15 1.4zM269.00007 787.6l515 191 204.8-120.4V120.8L794.60007 235a17.6 17.6 0 0 1-15 1.4L265.20007 45.6 35.20007 195v735.8l218.4-141.4a17.6 17.6 0 0 1 15.4-1.8zM593.40007 732c-21.2-9.6-6.6-41.6 14.6-32s48 14.2 73.4 13.6 24 34.6 0.8 35.2c-31 0.6-61-4.2-88.8-16.8zM752.00007 695c20-12.4 34.8-31.2 43.8-55.4s41-9.4 32.8 12.4c-12 31.8-31.6 56.4-58.2 73-19.6 12.2-38-17.8-18.4-30z m-644.4 11.6c-0.4-13.2-0.4-46.8 2.2-85.6 1.6-23 36.6-20.8 35 2.4-2.6 36.2-2.6 71-2.2 81.8 1 23.4-34.2 24.6-35 1.4z m415-31.8c-16-20.2-30.2-45.2-43.8-76.2-9.2-21.2 23-35.4 32.2-14 12.2 28.2 25.2 50.6 39.2 68.6s-13.4 39.8-27.6 21.6zM119.80007 536.2a603.2 603.2 0 0 1 19.8-83.8c7-22 40.6-11.4 33.4 10.8a569.2 569.2 0 0 0-18.6 78.8c-4 23.2-38.6 17-34.6-5.8zM449.20007 519c-10.4-30.8-18.4-55.2-27.6-78.2s24.2-34.4 32.6-12.8 18.4 50.8 28.2 79.8c7.4 21.8-25.8 33.2-33.2 11.2zM176.00007 372.2c18.8-28.8 41.2-50 67-62.6 20.8-10.2 36.4 21.2 15.6 31.6s-37.8 26.8-53 50.2c-12.6 19.4-42.2 0.4-29.6-19.2z m209.2-1.2c-16.4-21.4-35-34.2-57-38.8s-15.4-39.2 7.2-34.4c30.6 6.4 56.2 23.4 77.8 51.8 14 18.8-14 40-28 21.6z m433.2 212l-77.6-127.6a101.2 101.2 0 0 1-14-52 103.4 103.4 0 0 1 206.8 0 99 99 0 0 1-13 49.6l-71.8 129.6a17.6 17.6 0 0 1-30.4 0.6zM830.00007 335.6a68 68 0 0 0-68.2 67.8 66.2 66.2 0 0 0 9 34L832.40007 539l57.4-103h0.2a64.4 64.4 0 0 0 8.4-32.4 68.2 68.2 0 0 0-68.4-68z" p-id="900"></path></svg>