<?xml version="1.0" standalone="no"?><!DOCTYPE svg PUBLIC "-//W3C//DTD SVG 1.1//EN" "http://www.w3.org/Graphics/SVG/1.1/DTD/svg11.dtd"><svg t="1634648770274" class="icon" viewBox="0 0 1024 1024" version="1.1" xmlns="http://www.w3.org/2000/svg" p-id="1177" xmlns:xlink="http://www.w3.org/1999/xlink" width="200" height="200"><defs><style type="text/css"></style></defs><path d="M1002.665786 1023.99876H21.332974A21.332974 21.332974 0 0 1 0 1002.665786V21.332974A21.332974 21.332974 0 0 1 36.394956 6.229992l981.331812 981.332812a21.289974 21.289974 0 0 1-15.060982 36.436956z m-959.998838-42.666948h908.4999L42.666948 72.831912v908.4999z" p-id="1178"></path><path d="M576.852301 853.331967H191.999768A21.332974 21.332974 0 0 1 170.666793 831.998993V447.999458a21.332974 21.332974 0 0 1 36.436956-15.103982l380.842539 380.842539a21.332974 21.332974 0 0 1-11.093987 39.593952z m-363.519559-42.665949h311.167623L213.332742 499.498395v311.167623z m-63.999923 213.332742A21.332974 21.332974 0 0 1 127.999845 1002.665786V959.998838a21.332974 21.332974 0 0 1 42.666948 0v42.666948A21.332974 21.332974 0 0 1 149.332819 1023.99876z m127.999845 0A21.332974 21.332974 0 0 1 255.99969 1002.665786v-85.333897a21.332974 21.332974 0 0 1 42.666948 0v85.333897A21.332974 21.332974 0 0 1 277.332664 1023.99876z m127.999845 0A21.332974 21.332974 0 0 1 383.999535 1002.665786V959.998838a21.332974 21.332974 0 0 1 42.666948 0v42.666948A21.332974 21.332974 0 0 1 405.332509 1023.99876z m127.999845 0A21.332974 21.332974 0 0 1 511.99938 1002.665786v-85.333897a21.332974 21.332974 0 0 1 42.666948 0v85.333897A21.332974 21.332974 0 0 1 533.332354 1023.99876z m127.999845 0A21.332974 21.332974 0 0 1 639.999225 1002.665786V959.998838a21.332974 21.332974 0 0 1 42.666948 0v42.666948A21.332974 21.332974 0 0 1 661.332199 1023.99876z m127.999845 0A21.332974 21.332974 0 0 1 767.99907 1002.665786v-85.333897a21.332974 21.332974 0 0 1 42.666948 0v85.333897A21.332974 21.332974 0 0 1 789.332044 1023.99876z" p-id="1179"></path></svg>